<svg xmlns="http://www.w3.org/2000/svg" width="189.911" height="26.687" viewBox="0 0 189.911 26.687">
  <g id="enaa-logo-white" transform="translate(-12813.587 8874.452)">
    <path id="Tracé_7346" data-name="Tracé 7346" d="M692.618,13.816l-1.056,1a.038.038,0,0,1-.027.01h-.84a.038.038,0,0,1-.032-.059l.664-1a.038.038,0,0,1,.032-.017h1.232a.038.038,0,0,1,.027.066Z" transform="translate(12202.953 -8886.608)" fill="#fff"/>
    <path id="Tracé_7347" data-name="Tracé 7347" d="M1132.62,13.816l-1.056,1a.038.038,0,0,1-.027.01h-.84a.038.038,0,0,1-.033-.059l.664-1a.038.038,0,0,1,.032-.017h1.232a.038.038,0,0,1,.027.066Z" transform="translate(11813.952 -8886.608)" fill="#fff"/>
    <path id="Tracé_7350" data-name="Tracé 7350" d="M1240.68,29.938a.058.058,0,0,0,.008.076l1.121,1.055a.117.117,0,0,1,.028.127.114.114,0,0,1-.107.072h-.8a.529.529,0,0,1-.364-.137l-.461-.407a.083.083,0,0,0-.107-.008,3.577,3.577,0,1,1-2.732-6.436,3.068,3.068,0,0,1,1.5.092,3.535,3.535,0,0,1,1.914,5.566Zm-1.967-1.652a.081.081,0,0,1,.058.023l1.109,1.008a.039.039,0,0,0,.067-.009,2.552,2.552,0,0,0,.24-2.529,2.39,2.39,0,0,0-1.523-1.413,2.561,2.561,0,1,0,.556,4.658q.051-.032.006-.073l-1.837-1.656a.006.006,0,0,1,0-.006h0Z" transform="translate(11722.273 -8895.87)" fill="#fff"/>
    <path id="Tracé_7351" data-name="Tracé 7351" d="M780.532,31.633a3.547,3.547,0,1,1,3.534-3.54,3.547,3.547,0,0,1-3.534,3.54Zm0-.991a2.558,2.558,0,1,0-2.507-2.563,2.558,2.558,0,0,0,2.507,2.563Z" transform="translate(12126.608 -8896.147)" fill="#fff"/>
    <path id="Tracé_7352" data-name="Tracé 7352" d="M1062.75,26.894a.026.026,0,0,0-.046-.014l-1.682,2.52a.451.451,0,0,1-.751,0l-1.649-2.469q-.077-.115-.077.022v4.779a.029.029,0,0,1-.029.029h-.954a.027.027,0,0,1-.028-.027V24.8a.05.05,0,0,1,.057-.056h.692a.111.111,0,0,1,.1.05l2.235,3.308q.036.053.072,0l2.229-3.306a.111.111,0,0,1,.1-.052h.662a.051.051,0,0,1,.058.058v6.925a.029.029,0,0,1-.008.021.029.029,0,0,1-.021.008h-.925a.025.025,0,0,1-.028-.028Z" transform="translate(11878.603 -8896.333)" fill="#fff"/>
    <path id="Tracé_7353" data-name="Tracé 7353" d="M722.048,29.279a.046.046,0,0,1,.046-.031h.9a.024.024,0,0,1,.024.03,3.334,3.334,0,0,1-5.181,1.983,3.577,3.577,0,0,1-.111-5.69,3.3,3.3,0,0,1,5.249,1.829q.006.02-.015.02h-.951a.041.041,0,0,1-.038-.028,2.08,2.08,0,0,0-1.034-1.252,2.45,2.45,0,1,0,1.114,3.136Z" transform="translate(12180.222 -8896.428)" fill="#fff"/>
    <path id="Tracé_7354" data-name="Tracé 7354" d="M844.579,30.943h3.194a.038.038,0,0,1,.038.038v.937a.038.038,0,0,1-.038.038h-4.2a.038.038,0,0,1-.038-.038v-6.88a.038.038,0,0,1,.038-.038h.934a.038.038,0,0,1,.038.038V30.9a.038.038,0,0,0,.034.043Z" transform="translate(12067.799 -8896.555)" fill="#fff"/>
    <path id="Tracé_7355" data-name="Tracé 7355" d="M958.741,25h.905a.038.038,0,0,1,.038.038v6.907a.038.038,0,0,1-.038.038h-.738a.038.038,0,0,1-.031-.016l-3.266-4.755a.038.038,0,0,0-.07.021v4.712a.038.038,0,0,1-.038.038h-.934a.038.038,0,0,1-.038-.038V25.038a.038.038,0,0,1,.038-.038h.713a.038.038,0,0,1,.031.016l3.322,4.829a.038.038,0,0,0,.07-.021V25.038A.038.038,0,0,1,958.741,25Z" transform="translate(11969.664 -8896.555)" fill="#fff"/>
    <path id="Tracé_7356" data-name="Tracé 7356" d="M1009.66,29.9a2.07,2.07,0,0,1-1.358,1.918,2.967,2.967,0,0,1-2.891-.248,1.885,1.885,0,0,1-.72-.86,2.831,2.831,0,0,1-.153-1.064q0-2.32,0-4.614a.025.025,0,0,1,.028-.029h.95a.031.031,0,0,1,.031.03v5.012a1.056,1.056,0,0,0,.628.81,1.877,1.877,0,0,0,2.344-.459,1.538,1.538,0,0,0,.131-.724q0-2.272,0-4.612a.056.056,0,0,1,.05-.06h.9a.052.052,0,0,1,.052.052Q1009.66,27.451,1009.66,29.9Z" transform="translate(11925.458 -8896.555)" fill="#fff"/>
    <path id="Tracé_7357" data-name="Tracé 7357" d="M1204.83,30.959v-4.94a.038.038,0,0,0-.012-.028.039.039,0,0,0-.028-.011h-1.222a.039.039,0,0,1-.039-.039v-.9a.039.039,0,0,1,.039-.039h3.508a.039.039,0,0,1,.039.039v.9a.039.039,0,0,1-.039.039h-1.222a.039.039,0,0,0-.028.011.038.038,0,0,0-.012.028v4.939a.038.038,0,0,0,.012.028.039.039,0,0,0,.028.011h1.22a.039.039,0,0,1,.039.039v.931a.039.039,0,0,1-.039.039h-3.508a.039.039,0,0,1-.039-.039v-.932a.039.039,0,0,1,.039-.039h1.22a.039.039,0,0,0,.044-.037Z" transform="translate(11749.524 -8896.555)" fill="#fff"/>
    <path id="Tracé_7358" data-name="Tracé 7358" d="M1307.66,29.9a2.057,2.057,0,0,1-1.376,1.921,2.892,2.892,0,0,1-3.149-.465,2.039,2.039,0,0,1-.6-1.6q0-2.375,0-4.723a.025.025,0,0,1,.028-.029h.95a.031.031,0,0,1,.031.03v5.013a1.065,1.065,0,0,0,.65.819,1.873,1.873,0,0,0,2.322-.469,1.536,1.536,0,0,0,.131-.724V25.06a.055.055,0,0,1,.013-.041.055.055,0,0,1,.04-.019h.9a.053.053,0,0,1,.052.053Q1307.66,27.451,1307.66,29.9Z" transform="translate(11661.998 -8896.555)" fill="#fff"/>
    <path id="Tracé_7359" data-name="Tracé 7359" d="M678.013,26.588v1.836a.038.038,0,0,0,.038.038h3.022a.038.038,0,0,1,.038.038v.933a.038.038,0,0,1-.038.038h-3.022a.038.038,0,0,0-.038.038V31.38a.038.038,0,0,0,.038.038h3.112a.038.038,0,0,1,.038.038v.937a.038.038,0,0,1-.038.038h-4.125a.038.038,0,0,1-.038-.038V25.578a.038.038,0,0,1,.038-.038h4.125a.038.038,0,0,1,.038.038v.933a.038.038,0,0,1-.038.038h-3.112a.038.038,0,0,0-.038.039Z" transform="translate(12215.026 -8897.032)" fill="#fff"/>
    <path id="Tracé_7360" data-name="Tracé 7360" d="M885.013,26.579v1.836a.038.038,0,0,0,.038.038h3.084a.038.038,0,0,1,.038.038v.933a.038.038,0,0,1-.038.038h-3.083a.038.038,0,0,0-.038.038v1.872a.038.038,0,0,0,.038.038h3.138a.038.038,0,0,1,.038.038v.937a.038.038,0,0,1-.038.038h-4.149a.038.038,0,0,1-.038-.038V25.569a.038.038,0,0,1,.038-.038h4.148a.038.038,0,0,1,.038.038V26.5a.038.038,0,0,1-.038.038h-3.138A.038.038,0,0,0,885.013,26.579Z" transform="translate(12032.02 -8897.023)" fill="#fff"/>
    <path id="Tracé_7361" data-name="Tracé 7361" d="M1118.01,26.588v1.836a.038.038,0,0,0,.038.038h3.022a.038.038,0,0,1,.038.038v.933a.038.038,0,0,1-.038.038h-3.022a.038.038,0,0,0-.038.038v1.872a.038.038,0,0,0,.038.038h3.112a.038.038,0,0,1,.038.038v.937a.038.038,0,0,1-.038.038h-4.125a.038.038,0,0,1-.038-.038V25.578a.038.038,0,0,1,.038-.038h4.125a.038.038,0,0,1,.038.038v.933a.038.038,0,0,1-.038.038h-3.112a.038.038,0,0,0-.038.039Z" transform="translate(11826.025 -8897.032)" fill="#fff"/>
    <path id="Tracé_7362" data-name="Tracé 7362" d="M1158.51,26.6v5.85a.024.024,0,0,1-.007.02.024.024,0,0,1-.02.007h-.93a.023.023,0,0,1-.02-.006.023.023,0,0,1-.007-.02V25.583a.048.048,0,0,1,.054-.054h1.682a5.572,5.572,0,0,1,1.657.165,2.18,2.18,0,0,1-.356,4.13.073.073,0,0,0-.043.119l2.108,2.5a.018.018,0,0,1-.014.03h-1.237a.035.035,0,0,1-.028-.014l-2.42-2.983a.2.2,0,0,1-.045-.129V29a.05.05,0,0,1,.057-.057,5.269,5.269,0,0,0,1.569-.092,1.2,1.2,0,0,0,.063-2.192,6.168,6.168,0,0,0-2.006-.125.053.053,0,0,0-.058.066Z" transform="translate(11790.193 -8897.021)" fill="#fff"/>
    <path id="Tracé_7363" data-name="Tracé 7363" d="M1353.01,26.588v1.836a.038.038,0,0,0,.038.038h3.084a.038.038,0,0,1,.038.038v.933a.038.038,0,0,1-.038.038h-3.083a.038.038,0,0,0-.038.038v1.872a.038.038,0,0,0,.038.038h3.138a.038.038,0,0,1,.038.038v.937a.038.038,0,0,1-.038.038h-4.15a.038.038,0,0,1-.038-.038V25.578a.038.038,0,0,1,.038-.038h4.149a.038.038,0,0,1,.038.038v.933a.038.038,0,0,1-.038.038h-3.138a.038.038,0,0,0-.038.039Z" transform="translate(11618.264 -8897.032)" fill="#fff"/>
    <path id="Tracé_7373" data-name="Tracé 7373" d="M676.892,147.665H673.65a.043.043,0,0,0-.039.027l-1.093,2.671a.043.043,0,0,1-.039.027H671.1a.043.043,0,0,1-.039-.059l3.692-9.3A.043.043,0,0,1,674.8,141h.942a.043.043,0,0,1,.039.027l3.693,9.3a.043.043,0,0,1-.039.059h-1.37a.043.043,0,0,1-.039-.027l-1.091-2.671A.043.043,0,0,0,676.892,147.665Zm-2.734-1.331a.041.041,0,0,0,.038.053h2.149a.041.041,0,0,0,.038-.054l-1.069-3.043a.041.041,0,0,0-.076,0Z" transform="translate(12220.275 -8999.109)" fill="#fff"/>
    <path id="Tracé_7374" data-name="Tracé 7374" d="M1056.89,147.665h-3.243a.043.043,0,0,0-.04.027l-1.092,2.67a.043.043,0,0,1-.039.027H1051.1a.043.043,0,0,1-.039-.059l3.692-9.3a.043.043,0,0,1,.04-.027h.942a.043.043,0,0,1,.039.027l3.693,9.3a.043.043,0,0,1-.039.059h-1.37a.043.043,0,0,1-.039-.027l-1.091-2.67A.043.043,0,0,0,1056.89,147.665Zm-2.734-1.331a.041.041,0,0,0,.038.053h2.149a.041.041,0,0,0,.038-.054l-1.069-3.043a.041.041,0,0,0-.077,0Z" transform="translate(11884.32 -8999.109)" fill="#fff"/>
    <path id="Tracé_7375" data-name="Tracé 7375" d="M1225.36,150.179q0,.251.093.017l3.627-9.142a.081.081,0,0,1,.081-.054h.89a.071.071,0,0,1,.071.049l3.683,9.282a.041.041,0,0,1,0,.039.044.044,0,0,1-.035.019h-1.335a.088.088,0,0,1-.088-.059l-1.067-2.617a.077.077,0,0,0-.071-.048h-3.184a.09.09,0,0,0-.091.06l-1.07,2.618a.066.066,0,0,1-.066.044h-2.768a.051.051,0,0,1-.057-.058v-3.911a.051.051,0,0,0-.058-.058h-3.767a.051.051,0,0,0-.058.058v3.912a.051.051,0,0,1-.058.058h-1.217a.051.051,0,0,1-.058-.058V141.2a.051.051,0,0,1,.058-.058h1.217a.051.051,0,0,1,.058.058v3.738a.051.051,0,0,0,.058.058h3.767a.051.051,0,0,0,.058-.058V141.2a.051.051,0,0,1,.058-.058h1.275a.051.051,0,0,1,.058.058Zm3.132-3.845a.04.04,0,0,0,.038.053h2.149a.041.041,0,0,0,.038-.054l-1.069-3.043a.041.041,0,0,0-.077,0Z" transform="translate(11736.068 -8999.109)" fill="#fff"/>
    <path id="Tracé_7376" data-name="Tracé 7376" d="M1478.89,147.665h-3.243a.043.043,0,0,0-.039.027l-1.092,2.67a.043.043,0,0,1-.039.027H1473.1a.043.043,0,0,1-.039-.059l3.692-9.3a.043.043,0,0,1,.039-.027h.942a.043.043,0,0,1,.039.027l3.693,9.3a.043.043,0,0,1-.039.059h-1.37a.043.043,0,0,1-.039-.027l-1.091-2.67a.043.043,0,0,0-.037-.027Zm-2.734-1.331a.04.04,0,0,0,.038.053h2.149a.041.041,0,0,0,.038-.054l-1.069-3.043a.041.041,0,0,0-.077,0Z" transform="translate(11511.233 -8999.109)" fill="#fff"/>
    <path id="Tracé_7377" data-name="Tracé 7377" d="M1421.18,147.95c-.01-.729-.635-.954-1.314-1.049l-1.474-.205c-1.482-.207-2.6-.949-2.57-2.58.057-3.4,6.019-3.765,6.467-.313,0,.034-.01.052-.045.053l-1.221.054a.084.084,0,0,1-.092-.065,1.2,1.2,0,0,0-.476-.727,2.426,2.426,0,0,0-2.659,0,1.161,1.161,0,0,0-.592,1.2c.066.663.677.916,1.252,1,1.315.19,3.413.269,3.94,1.813.65,1.9-.81,3.358-2.613,3.635-1.759.271-3.945-.606-4.026-2.643a.048.048,0,0,1,.053-.057l1.256-.039a.066.066,0,0,1,.077.07C1417.26,150.012,1421.21,149.891,1421.18,147.95Z" transform="translate(11561.895 -8999.447)" fill="#fff"/>
    <path id="Tracé_7378" data-name="Tracé 7378" d="M811.362,144.894v6.32a.051.051,0,0,1-.058.058h-1.246a.051.051,0,0,1-.058-.058v-9.142a.064.064,0,0,1,.072-.073h.974a.107.107,0,0,1,.094.05l3,4.382a.033.033,0,0,0,.028.015.036.036,0,0,0,.029-.015l2.98-4.393a.085.085,0,0,1,.074-.039h.982a.051.051,0,0,1,.058.058v9.157a.051.051,0,0,1-.058.058h-1.246a.051.051,0,0,1-.058-.058v-6.233q0-.167-.093-.028l-2.243,3.342a.114.114,0,0,1-.1.051h-.673a.11.11,0,0,1-.1-.051l-2.315-3.416Q811.362,144.807,811.362,144.894Z" transform="translate(12097.442 -8999.993)" fill="#fff"/>
    <path id="Tracé_7379" data-name="Tracé 7379" d="M1355.29,148.366v-6.333a.051.051,0,0,1,.058-.058h1.217a.051.051,0,0,1,.058.058v9.157a.051.051,0,0,1-.058.058h-.935a.138.138,0,0,1-.119-.063l-4.365-6.305q-.057-.081-.057.017v6.293a.051.051,0,0,1-.058.058h-1.217a.051.051,0,0,1-.058-.058V142a.053.053,0,0,1,.063-.06l.905.025a.138.138,0,0,1,.115.063l4.4,6.354a.029.029,0,0,0,.031.011.026.026,0,0,0,.02-.027Z" transform="translate(11620.253 -8999.939)" fill="#fff"/>
    <path id="Tracé_7380" data-name="Tracé 7380" d="M746.122,146.1h3.8a.039.039,0,0,0,.039-.039v-3.775a.039.039,0,0,1,.039-.039h1.312a.039.039,0,0,1,.039.039v9.165a.039.039,0,0,1-.039.039H750a.039.039,0,0,1-.039-.039V147.5a.039.039,0,0,0-.039-.039h-3.8a.039.039,0,0,0-.039.039v3.949a.039.039,0,0,1-.039.039H744.79a.039.039,0,0,1-.039-.039v-9.165a.039.039,0,0,1,.039-.039h1.254a.039.039,0,0,1,.039.039v3.775a.039.039,0,0,0,.039.039Z" transform="translate(12155.13 -9000.214)" fill="#fff"/>
    <path id="Tracé_7381" data-name="Tracé 7381" d="M1126.15,150.132h4.265a.041.041,0,0,1,.041.041v1.31a.041.041,0,0,1-.041.041h-5.627a.041.041,0,0,1-.041-.041v-9.191a.041.041,0,0,1,.041-.041h1.281a.041.041,0,0,1,.041.041v7.8A.041.041,0,0,0,1126.15,150.132Z" transform="translate(11819.174 -9000.214)" fill="#fff"/>
    <path id="Tracé_7382" data-name="Tracé 7382" d="M1548.15,150.132h4.265a.041.041,0,0,1,.041.041v1.31a.041.041,0,0,1-.041.041h-5.627a.041.041,0,0,1-.041-.041v-9.191a.041.041,0,0,1,.041-.041h1.281a.041.041,0,0,1,.041.041v7.8a.041.041,0,0,0,.04.04Z" transform="translate(11446.086 -9000.214)" fill="#fff"/>
    <path id="Tracé_7383" data-name="Tracé 7383" d="M1600.36,150.161h1.657a.041.041,0,0,1,.041.041v1.281a.04.04,0,0,1-.041.041h-4.729a.04.04,0,0,1-.041-.041V150.2a.041.041,0,0,1,.041-.041h1.626a.041.041,0,0,0,.041-.041v-6.5a.041.041,0,0,0-.041-.041h-1.628a.04.04,0,0,1-.041-.041v-1.252a.039.039,0,0,1,.012-.029.04.04,0,0,1,.029-.012h4.729a.04.04,0,0,1,.029.012.04.04,0,0,1,.012.029v1.252a.04.04,0,0,1-.012.029.04.04,0,0,1-.029.012h-1.657a.041.041,0,0,0-.041.041v6.5a.04.04,0,0,0,.043.041Z" transform="translate(11401.439 -9000.214)" fill="#fff"/>
    <path id="Tracé_7384" data-name="Tracé 7384" d="M891.15,150.574h4.212a.038.038,0,0,1,.038.038v1.314a.038.038,0,0,1-.038.038h-5.574a.038.038,0,0,1-.038-.038v-9.138a.038.038,0,0,1,.038-.038h5.574a.038.038,0,0,1,.038.038v1.285a.038.038,0,0,1-.038.038H891.15a.038.038,0,0,0-.038.038v2.387a.038.038,0,0,0,.038.038h4.125a.038.038,0,0,1,.038.038v1.314a.038.038,0,0,1-.038.038H891.15a.038.038,0,0,0-.038.038v2.531a.038.038,0,0,0,.038.041Z" transform="translate(12026.936 -9000.657)" fill="#fff"/>
    <path id="Tracé_7385" data-name="Tracé 7385" d="M943.632,142.667a.087.087,0,0,1,.087-.087l3.332.012a4.467,4.467,0,0,1,4.448,4.486v.249a4.467,4.467,0,0,1-4.48,4.454l-3.333-.012a.087.087,0,0,1-.087-.087ZM944.979,144v6.384a.044.044,0,0,0,.044.044h1.988a3.123,3.123,0,0,0,3.124-3.123v-.227a3.123,3.123,0,0,0-3.124-3.123h-1.988a.044.044,0,0,0-.044.045Z" transform="translate(11979.327 -9000.506)" fill="#fff"/>
    <g id="Groupe_1093" data-name="Groupe 1093">
      <path id="Tracé_7337" data-name="Tracé 7337" d="M133.281,0h.071V7.477a.1.1,0,0,1-.053.089l-3.631,1.989.02-7.482h.03c.007,0,.007-.006,0-.013a.066.066,0,0,0-.027-.018A.046.046,0,0,1,129.663,2Z" transform="translate(12698.926 -8874.452)" fill="#fff"/>
      <path id="Tracé_7338" data-name="Tracé 7338" d="M517.739,1.18l-.08.238-4.81.019a.4.4,0,0,0-.109-.21V1.058A.051.051,0,0,1,512.8,1h4.9a.053.053,0,0,1,.059.053.309.309,0,0,1-.015.127Z" transform="translate(12360.248 -8875.336)" fill="#fff"/>
      <path id="Tracé_7339" data-name="Tracé 7339" d="M172.678,28.119h-4.794a.037.037,0,0,1-.036-.048l7.9-26.3a.037.037,0,0,1,.036-.027h4.859a.037.037,0,0,1,.036.027l5.029,17.835a.037.037,0,0,0,.072,0l5.347-17.788a.037.037,0,0,1,.071,0l2.438,7.839a.037.037,0,0,1,0,.021L188.1,28.091a.037.037,0,0,1-.036.027h-4.8a.037.037,0,0,1-.036-.027l-5.053-17.934a.037.037,0,0,0-.072,0l-5.391,17.935A.037.037,0,0,1,172.678,28.119Z" transform="translate(12665.165 -8875.999)" fill="#fff"/>
      <path id="Tracé_7340" data-name="Tracé 7340" d="M377.583,1.8V12.174a.058.058,0,0,1-.1.044.169.169,0,0,0-.066-.014L374.2,1.863q-.02-.063.046-.063Z" transform="translate(12482.729 -8876.043)" fill="#fff"/>
      <path id="Tracé_7341" data-name="Tracé 7341" d="M402.133,1.791h1.416a.07.07,0,0,1,.074.054l1.033,3.328a.2.2,0,0,0-.074.017.075.075,0,0,0-.046.073V19.926a.079.079,0,0,1-.111.072l-.034-.015L401.97,12.2a.169.169,0,0,1,.066.014.058.058,0,0,0,.1-.044Z" transform="translate(12458.179 -8876.034)" fill="#fff"/>
      <path id="Tracé_7342" data-name="Tracé 7342" d="M537.5,2.55l8.153,26.238a.031.031,0,0,1,0,.026.028.028,0,0,1-.023.012h-4.75a.073.073,0,0,1-.077-.057L535.09,10.454l1.225-4.044.51-1.682.362-1.19.232-.75Z" transform="translate(12340.488 -8876.707)" fill="#fff"/>
      <path id="Tracé_7343" data-name="Tracé 7343" d="M470.931,2.95a.4.4,0,0,1,.109.21l.225.716.389,1.22.525,1.667,1.252,4.075-5.5,18.318a.4.4,0,0,0-.071-.238q-1.187-3.84-2.406-7.726Z" transform="translate(12402.057 -8877.061)" fill="#fff"/>
      <path id="Tracé_7344" data-name="Tracé 7344" d="M518.49,4.6l-.232.75c-.147-.029-.457.059-.529.029a.266.266,0,0,0-.109-.023l-3.72-.021-.225-.716Z" transform="translate(12359.417 -8878.52)" fill="#fff"/>
      <path id="Tracé_7345" data-name="Tracé 7345" d="M515.62,10.94l3.716.021a.265.265,0,0,1,.109.023c.072.03.381-.058.529-.029l-.362,1.19-3.6.015Z" transform="translate(12357.702 -8884.124)" fill="#fff"/>
      <path id="Tracé_7348" data-name="Tracé 7348" d="M106,17.21a.046.046,0,0,0,.028.045.066.066,0,0,1,.027.018c.006.007,0,.012,0,.013h-.03l-.02,7.482-3.084,1.679-.021-7.534Z" transform="translate(12722.585 -8889.667)" fill="#fff"/>
      <path id="Tracé_7349" data-name="Tracé 7349" d="M522.582,21.34l-.51,1.682H519.5l-.525-1.667Z" transform="translate(12354.73 -8893.318)" fill="#fff"/>
      <path id="Tracé_7364" data-name="Tracé 7364" d="M423.125,30.97l2.12,6.855-.006,14.908a.169.169,0,0,1-.034.1q-.065.088-.126.083l-2.22-7.134.034.015a.079.079,0,0,0,.111-.072V31.06a.075.075,0,0,1,.046-.073.2.2,0,0,1,.075-.017Z" transform="translate(12439.71 -8901.832)" fill="#fff"/>
      <path id="Tracé_7365" data-name="Tracé 7365" d="M78.119,31.93l.021,7.534L74.9,41.233l-.035-7.521Z" transform="translate(12747.366 -8902.682)" fill="#fff"/>
      <path id="Tracé_7366" data-name="Tracé 7366" d="M523.51,35.85h2.567l-1.225,4.044q-.053-.029-.09.031Z" transform="translate(12350.727 -8906.147)" fill="#fff"/>
      <path id="Tracé_7367" data-name="Tracé 7367" d="M48.029,47.3l.035,7.521-.625.321-1.348.717-1.421.771v-7.3a.091.091,0,0,0-.024-.062.048.048,0,0,0-.051-.015.134.134,0,0,1-.086-.017Z" transform="translate(12774.207 -8916.27)" fill="#fff"/>
      <path id="Tracé_7368" data-name="Tracé 7368" d="M5.38,63.96a.134.134,0,0,0,.086.017.048.048,0,0,1,.051.015.091.091,0,0,1,.024.062V71.36l-4.16,2.276L.293,73.153a.066.066,0,0,1-.043-.065V66.833a.1.1,0,0,1,.05-.088Z" transform="translate(12813.337 -8930.999)" fill="#fff"/>
      <path id="Tracé_7369" data-name="Tracé 7369" d="M442.176,90.11l2.4,7.727v8.411l-2.174.007a.075.075,0,0,1-.079-.059l-.307-1a.174.174,0,0,0,.126-.083.169.169,0,0,0,.034-.1Z" transform="translate(12422.78 -8954.118)" fill="#fff"/>
      <path id="Tracé_7370" data-name="Tracé 7370" d="M58.525,114.96l2.352,1.284-.017,7.563-3.81-2.091q.013-2.893.008-5.708a.636.636,0,0,1,.119-.33Z" transform="translate(12763.12 -8976.087)" fill="#fff"/>
      <path id="Tracé_7371" data-name="Tracé 7371" d="M15.59,121.15a.636.636,0,0,0-.119.33q0,2.815-.008,5.708L10.01,124.2l4.159-2.276Z" transform="translate(12804.708 -8981.56)" fill="#fff"/>
      <path id="Tracé_7372" data-name="Tracé 7372" d="M89.937,126.04,93.551,128l-.1.044a.089.089,0,0,0-.057.087v7.374l-3.474-1.9Z" transform="translate(12734.061 -8985.883)" fill="#fff"/>
      <path id="Tracé_7386" data-name="Tracé 7386" d="M120.048,142.97l3.774,2.053-.131.025a.07.07,0,0,0-.064.077v7.4l-3.735-2.045V143.1a.089.089,0,0,1,.057-.087Z" transform="translate(12707.564 -9000.851)" fill="#fff"/>
      <path id="Tracé_7387" data-name="Tracé 7387" d="M464.1,156.78l.152.413q1.219,3.886,2.406,7.726a.4.4,0,0,1,.071.238l-2.633.035Z" transform="translate(12403.25 -9013.061)" fill="#fff"/>
      <path id="Tracé_7388" data-name="Tracé 7388" d="M152.307,160.68l.845.456a.083.083,0,0,1,.046.078v7.476q0,.078-.068.041l-1.02-.553v-7.4a.07.07,0,0,1,.064-.077Z" transform="translate(12679.079 -9016.508)" fill="#fff"/>
    </g>
  </g>
</svg>
