<svg width="148" height="34" viewBox="0 0 148 34" fill="none" xmlns="http://www.w3.org/2000/svg">
<g id="Calque_1" clip-path="url(#clip0_4310_845)">
<g id="Group">
<path id="Vector" d="M49.6901 25.7225C48.5922 25.7225 47.5404 25.577 46.5424 25.2781C45.5443 24.9793 44.6768 24.5579 43.9244 23.9985C43.172 23.4392 42.5962 22.7572 42.197 21.9527L44.2622 19.7306C44.577 20.2363 44.9916 20.7343 45.4983 21.2171C46.005 21.6998 46.6192 22.0982 47.3408 22.4047C48.0625 22.7112 48.884 22.8645 49.8206 22.8645C50.5807 22.8645 51.1949 22.7189 51.6478 22.4354C52.1008 22.1519 52.3311 21.7458 52.3311 21.2171C52.3311 20.65 52.0624 20.2363 51.5403 19.9834C51.0106 19.7306 50.312 19.5007 49.4444 19.2861L47.3792 18.8111C46.5731 18.5965 45.813 18.3283 45.0914 17.9835C44.3697 17.6464 43.7862 17.1866 43.3409 16.6043C42.8957 16.022 42.673 15.271 42.673 14.3362C42.673 12.8804 43.2104 11.7387 44.2776 10.9111C45.3447 10.0836 46.7727 9.67749 48.5462 9.67749C50.1968 9.67749 51.5864 10.0146 52.7226 10.6889C53.8512 11.3632 54.6573 12.1371 55.118 13.003L53.0221 15.2251C52.4923 14.3822 51.8167 13.7232 51.0029 13.2405C50.1891 12.7654 49.2832 12.5279 48.2851 12.5279C47.5865 12.5279 47.0337 12.6658 46.6192 12.9417C46.2046 13.2175 45.9973 13.6083 45.9973 14.114C45.9973 14.6657 46.2276 15.0795 46.6806 15.363C47.1335 15.6465 47.8783 15.9147 48.9224 16.1675L50.7956 16.6426C52.5307 17.087 53.7514 17.6694 54.4654 18.405C55.1717 19.1329 55.5325 20.0447 55.5325 21.1481C55.5325 22.1595 55.2715 23.0101 54.7571 23.6844C54.2351 24.3586 53.5364 24.8644 52.6612 25.2092C51.786 25.5463 50.7956 25.7149 49.6901 25.7149V25.7225Z" fill="white"/>
<path id="Vector_2" d="M61.9122 7.77754H58.3575V4.16089H61.9122V7.77754ZM61.9122 25.4011H58.3575V9.96899H61.9122V25.4087V25.4011Z" fill="white"/>
<path id="Vector_3" d="M69.221 25.4009H65.6664V9.96879H69.221V25.4085V25.4009ZM78.7486 25.4009H75.1939V15.7616C75.1939 14.6812 74.9636 13.8843 74.4953 13.3556C74.027 12.8269 73.2669 12.5663 72.2075 12.5663C71.5088 12.5663 70.9407 12.7426 70.5108 13.0874C70.0732 13.4399 69.7507 13.9226 69.5434 14.5432C69.3285 15.1639 69.2287 15.8995 69.2287 16.75L69.0367 15.2942C69.1442 14.344 69.3899 13.4322 69.7814 12.5663C70.173 11.7005 70.7334 10.9956 71.4628 10.4592C72.1921 9.92282 73.1211 9.64697 74.242 9.64697C75.7007 9.64697 76.8215 10.0837 77.5893 10.9496C78.3647 11.8154 78.7486 13.0567 78.7486 14.6582V25.4009ZM88.2761 25.4009H84.7215V15.7616C84.7215 14.6812 84.4912 13.8843 84.0229 13.3556C83.5546 12.8269 82.7945 12.5663 81.735 12.5663C81.0364 12.5663 80.4683 12.7426 80.0384 13.0874C79.6007 13.4399 79.2783 13.9226 79.071 14.5432C78.856 15.1639 78.7562 15.8995 78.7562 16.75L78.5643 15.2942C78.6718 14.344 78.9175 13.4322 79.309 12.5663C79.7005 11.7005 80.261 10.9956 80.9903 10.4592C81.7197 9.92282 82.6486 9.64697 83.7695 9.64697C85.2282 9.64697 86.3491 10.0837 87.1168 10.9496C87.8923 11.8154 88.2761 13.0567 88.2761 14.6582V25.4009Z" fill="white"/>
<path id="Vector_4" d="M95.4854 31.301H91.9308V9.96893H95.4854V31.301ZM100.376 25.7228C99.1705 25.7228 98.2185 25.447 97.5199 24.8953C96.8212 24.3436 96.2992 23.6463 95.9614 22.7881C95.6236 21.9299 95.4009 21.0258 95.2935 20.0756L95.4854 18.6198C95.4854 19.4626 95.6082 20.2059 95.8539 20.8419C96.0996 21.4778 96.4758 21.9682 96.9978 22.313C97.5199 22.6655 98.1955 22.8341 99.0477 22.8341C100.146 22.8341 101.074 22.405 101.827 21.5468C102.579 20.6886 102.955 19.3937 102.955 17.662C102.955 15.9303 102.579 14.6047 101.827 13.7618C101.074 12.9189 100.146 12.4975 99.0477 12.4975C98.2032 12.4975 97.5199 12.6738 96.9978 13.0186C96.4758 13.371 96.0996 13.8614 95.8539 14.4897C95.6082 15.1257 95.4854 15.8613 95.4854 16.7118L95.2935 15.256C95.4009 14.3058 95.6236 13.394 95.9767 12.5282C96.3299 11.6623 96.8596 10.9574 97.5813 10.421C98.303 9.88464 99.255 9.61646 100.437 9.61646C101.704 9.61646 102.794 9.94594 103.708 10.5972C104.621 11.2562 105.328 12.1757 105.834 13.371C106.341 14.5664 106.594 15.9992 106.594 17.6696C106.594 19.34 106.341 20.7423 105.834 21.9453C105.328 23.1482 104.606 24.0831 103.677 24.7344C102.748 25.3933 101.643 25.7152 100.376 25.7152V25.7228Z" fill="white"/>
<path id="Vector_5" d="M113.112 25.4007H109.558V4.16821H113.112V25.4084V25.4007Z" fill="white"/>
<path id="Vector_6" d="M123.37 25.7227C121.888 25.7227 120.583 25.3933 119.447 24.7266C118.31 24.06 117.435 23.1175 116.813 21.9069C116.191 20.6885 115.877 19.294 115.877 17.7079C115.877 16.1218 116.191 14.6736 116.813 13.4782C117.435 12.2829 118.318 11.3481 119.447 10.6738C120.583 9.9995 121.888 9.66235 123.37 9.66235C124.851 9.66235 126.187 9.9995 127.323 10.6738C128.46 11.3481 129.343 12.2829 129.972 13.4782C130.609 14.6736 130.924 16.0834 130.924 17.7079C130.924 19.3323 130.609 20.6962 129.972 21.9069C129.335 23.1252 128.452 24.06 127.323 24.7266C126.187 25.3933 124.874 25.7227 123.37 25.7227ZM123.4 22.7727C124.183 22.7727 124.867 22.5965 125.45 22.2363C126.034 21.8762 126.487 21.3245 126.817 20.5736C127.147 19.8227 127.308 18.8649 127.308 17.7079C127.308 16.5508 127.147 15.5317 126.817 14.7885C126.487 14.0529 126.034 13.5012 125.45 13.1411C124.867 12.7809 124.183 12.6047 123.4 12.6047C122.656 12.6047 121.995 12.7809 121.397 13.1411C120.805 13.5012 120.345 14.0529 120.015 14.7885C119.685 15.5317 119.523 16.4972 119.523 17.7079C119.523 18.9185 119.685 19.8304 120.015 20.5736C120.345 21.3245 120.805 21.8762 121.397 22.2363C121.988 22.5965 122.656 22.7727 123.4 22.7727Z" fill="white"/>
<path id="Vector_7" d="M137.534 25.401H133.979V9.96889H137.534V25.4086V25.401ZM147.63 25.401H144.044V15.7617C144.044 14.8115 143.845 14.0376 143.438 13.4476C143.038 12.8576 142.232 12.5588 141.027 12.5588C140.159 12.5588 139.469 12.735 138.962 13.0798C138.455 13.4323 138.087 13.915 137.864 14.5357C137.641 15.1563 137.534 15.8919 137.534 16.7424L137.342 15.2866C137.449 14.3365 137.703 13.4246 138.102 12.5588C138.501 11.6929 139.085 10.988 139.852 10.4516C140.612 9.91525 141.587 9.6394 142.777 9.6394C144.282 9.6394 145.465 10.0762 146.332 10.942C147.2 11.8079 147.637 13.0492 147.637 14.6506V25.3933L147.63 25.401Z" fill="white"/>
</g>
<g id="Group_2">
<path id="Vector_8" d="M16.8002 0C7.53369 0 0.0175781 7.50149 0.0175781 16.75C0.0175781 25.9985 7.53369 33.5 16.8002 33.5C26.0668 33.5 33.5829 25.9985 33.5829 16.75C33.5829 7.50149 26.0668 0 16.8002 0ZM16.8002 29.1324C9.94437 29.1324 4.39366 23.5849 4.39366 16.75C4.39366 9.91514 9.94437 4.36757 16.8002 4.36757C23.6561 4.36757 29.2068 9.91514 29.2068 16.75C29.2068 23.5849 23.6484 29.1324 16.8002 29.1324Z" fill="white"/>
<path id="Vector_9" d="M18.9352 10.6431H14.6589V14.911H18.9352V10.6431Z" fill="white"/>
<path id="Vector_10" d="M18.9352 18.5891H14.6589V22.8571H18.9352V18.5891Z" fill="white"/>
</g>
</g>
<defs>
<clipPath id="clip0_4310_845">
<rect width="147.648" height="33.5" fill="white"/>
</clipPath>
</defs>
</svg>
